<?xml version="1.0" encoding="utf-8"?>
<!-- Generator: Adobe Illustrator 15.1.0, SVG Export Plug-In . SVG Version: 6.00 Build 0)  -->
<!DOCTYPE svg PUBLIC "-//W3C//DTD SVG 1.1//EN" "http://www.w3.org/Graphics/SVG/1.1/DTD/svg11.dtd">
<svg version="1.1" id="Layer_3" xmlns="http://www.w3.org/2000/svg" xmlns:xlink="http://www.w3.org/1999/xlink" x="0px" y="0px"
	 width="841.89px" height="595.275px" viewBox="0 0 841.89 595.275" enable-background="new 0 0 841.89 595.275"
	 xml:space="preserve">
<g>
	<path fill="#5C3DCC" d="M425.567,281.294c-37.009,0-67.011-29.993-67.011-67.001c0-37.009,30.002-67.019,67.011-67.019
		c37.008,0,67.018,30.01,67.018,67.019C492.585,251.301,462.575,281.294,425.567,281.294 M425.567,110.155
		c-57.503,0-104.139,46.619-104.139,104.121c0,57.519,46.636,104.146,104.139,104.146c57.51,0,104.128-46.627,104.128-104.146
		C529.695,156.773,483.077,110.155,425.567,110.155"/>
	<polygon fill="#5C3DCC" points="261.035,160.913 234.723,187.225 264.071,214.877 234.96,242.309 261.255,268.613 314.99,214.877 	
		"/>
	<path fill="#8B8B89" d="M164.286,319.591c-25.948,0-49.503-9.008-69.962-26.812c-22.97-20.061-34.6-46.509-34.6-78.597
		c0-28.484,10.535-53.227,31.308-73.542c20.544-20.221,45.635-30.485,74.526-30.485c28.67,0,53.591,10.382,74.042,30.833
		l-27.161,27.168c-13.189-13.182-28.517-19.585-46.881-19.585c-18.712,0-34.286,6.387-47.637,19.483
		c-13.309,13.046-19.772,28.127-19.772,46.127c0,20.798,7.016,37.033,21.409,49.613c13.437,11.68,28.068,17.38,44.728,17.38
		c19.034,0,34.803-6.361,48.222-19.441l26.83,27.517C218.674,309.387,193.422,319.591,164.286,319.591"/>
	<path fill="#5C3DCC" d="M185.144,416.206c17.346,0,33.666,12.775,33.666,34.42c0,21.732-16.32,34.49-33.666,34.49
		c-17.347,0-33.582-12.758-33.582-34.49C151.562,428.98,167.797,416.206,185.144,416.206 M185.144,474.496
		c11.188,0,22.198-7.922,22.198-23.87c0-15.963-11.01-23.886-22.198-23.886c-11.104,0-22.105,7.923-22.105,23.886
		C163.039,466.574,174.04,474.496,185.144,474.496"/>
	<polygon fill="#5C3DCC" points="246.352,483.725 246.352,417.605 257.54,417.605 257.54,473.097 287.856,473.097 287.856,483.725 	
		"/>
	<polygon fill="#5C3DCC" points="313.803,483.725 313.803,417.605 324.991,417.605 324.991,473.097 355.308,473.097 
		355.308,483.725 	"/>
	<path fill="#5C3DCC" d="M424.422,467.116h-27.976l-6.149,16.608h-11.857l25.734-66.128h12.97l25.744,66.128h-12.224
		L424.422,467.116z M400.365,456.777h20.138l-10.077-27.051L400.365,456.777z"/>
	<path fill="#5C3DCC" d="M494.647,417.597c12.697,0,20.145,7.473,20.145,17.812c0,7.007-4.104,12.224-9.789,14.275
		c6.99,1.866,11.842,7.932,11.842,15.77c0,10.628-8.211,18.279-20.519,18.279h-24.438v-66.137H494.647z M493.153,445.589
		c6.523,0,10.45-3.732,10.45-9.238c0-5.59-3.927-9.236-10.73-9.236h-9.889v18.475H493.153z M494.367,474.208
		c6.718,0,11.094-3.631,11.094-9.501c0-5.699-3.833-9.703-10.721-9.703h-11.756v19.204H494.367z"/>
	<path fill="#5C3DCC" d="M578.206,416.206c17.354,0,33.675,12.775,33.675,34.42c0,21.732-16.32,34.49-33.675,34.49
		s-33.572-12.758-33.572-34.49C544.634,428.98,560.852,416.206,578.206,416.206 M578.206,474.496
		c11.196,0,22.199-7.922,22.199-23.87c0-15.963-11.003-23.886-22.199-23.886c-11.096,0-22.104,7.923-22.104,23.886
		C556.102,466.574,567.11,474.496,578.206,474.496"/>
	<path fill="#5C3DCC" d="M759.236,467.116h-27.975l-6.15,16.608h-11.85l25.735-66.128h12.962l25.752,66.128h-12.231L759.236,467.116
		z M735.181,456.777h20.137l-10.06-27.051L735.181,456.777z"/>
	<path fill="#5C3DCC" d="M117.056,460.467c-3.495,9.363-11.943,14.029-20.519,14.029c-11.095,0-22.113-7.922-22.113-23.87
		c0-15.963,11.018-23.886,22.113-23.886c8.61,0,17.075,4.708,20.553,14.124h11.91c-4.088-15.667-17.906-24.659-32.462-24.659
		c-17.346,0-33.573,12.775-33.573,34.42c0,21.725,16.227,34.498,33.573,34.498c14.531,0,28.339-8.974,32.445-24.657H117.056z"/>
	<path fill="#5C3DCC" d="M662.809,458.117h-9.619v26.117h-11.281v-66.129h26.312c12.773,0,20.705,8.864,20.705,20.061
		c0,9.415-5.225,16.601-14.445,18.839l15.854,27.229h-12.681L662.809,458.117z M666.643,448.234c6.889,0,10.9-4.021,10.9-10.068
		c0-6.167-4.471-10.17-11.375-10.17h-12.979v20.238H666.643z"/>
</g>
</svg>
