<?xml version="1.0" encoding="utf-8"?>
<!-- Generator: Adobe Illustrator 19.2.0, SVG Export Plug-In . SVG Version: 6.00 Build 0)  -->
<svg version="1.1" id="Layer_1" xmlns="http://www.w3.org/2000/svg" xmlns:xlink="http://www.w3.org/1999/xlink" x="0px" y="0px"
	 viewBox="0 0 841.9 595.3" style="enable-background:new 0 0 841.9 595.3;" xml:space="preserve">
<style type="text/css">
	.st0{fill:#EA5B0C;}
	.st1{fill:#4A4A49;}
</style>
<path class="st0" d="M271.9,285.4c-13-7.4-38.2,1.8-60.8,13.3c-5.8-2.7-11.5-5.4-17.1-8c16.6-9.2,30-18.3,33.2-20.5
	c2.2-1.5,2.7-4.5,1.2-6.6c-1.5-2.2-4.5-2.7-6.6-1.2c-10.8,7.4-24.7,16.1-38.8,23.5c-26.9-11.7-49.8-19-61.7-12.1
	c-3.4,2-7.6,6.2-8.3,14.6c-1,13,4.3,18.9,9,21.6c13,7.4,38.2-1.8,60.8-13.3c5.8,2.7,11.5,5.4,17.1,8c-16.5,9.2-30,18.3-33.2,20.5
	c-2.2,1.5-2.7,4.5-1.2,6.6c1.5,2.2,4.5,2.7,6.6,1.2c10.8-7.4,24.7-16.1,38.8-23.5c26.9,11.7,49.8,19,61.7,12.1
	c3.4-2,7.6-6.2,8.3-14.6C281.9,293.9,276.6,288,271.9,285.4z M126.8,301.6c-1.2-0.7-4.9-2.8-4.2-12.6c0.3-4.7,2.2-6.3,3.5-7.1
	c2.9-1.7,7.5-1.9,13.1-1c8.8,1.4,20.3,5.4,32.6,10.5C152.5,300.6,134.7,306.2,126.8,301.6z M271.4,306.3c-0.3,4.7-2.2,6.3-3.6,7.1
	c-2.9,1.7-7.5,1.9-13.1,1c-8.8-1.4-20.3-5.4-32.6-10.5c19.3-9.2,37.1-14.8,45.1-10.2C268.4,294.4,272.1,296.5,271.4,306.3z"/>
<g>
	<path class="st1" d="M328.6,272h30.6v4.6h-25.7V294h19.2v4.4h-19.2v20.4h27.2v4.5h-32.1V272z"/>
	<path class="st1" d="M387.1,272h5.3l28.3,42.3h0.1V272h4.6v51.3h-4.4l-29.2-43.6h-0.1v43.6h-4.6V272z"/>
	<path class="st1" d="M455.2,272h13c16.7,0,25.5,8.7,25.5,25.6c0,16.9-9,25.7-25.5,25.7h-13V272z M468.9,318.9
		c12.7,0,19.8-6.4,19.8-21.3c0-14.5-7.2-21-20-21h-8.7v42.3H468.9z"/>
	<path class="st1" d="M521,272h4.9v46.8H551v4.5h-30V272z"/>
	<path class="st1" d="M576.8,272h30.6v4.6h-25.7V294h19.2v4.4h-19.2v20.4h27.2v4.5h-32.1V272z"/>
	<path class="st1" d="M631.4,310.7l4.4-1.6c2.3,7.1,7.5,10.8,14.7,10.8c7.7,0,12.7-3.5,12.7-9.3c0-5.3-2.6-8-13.4-11.5
		c-11-3.5-16.6-6.4-16.6-14.9c0-7.4,6.6-13.2,15.9-13.2c9.6,0,15.2,4.9,17.6,11.8l-4.2,1.9c-2.6-6.7-7.1-9.3-13.5-9.3
		c-6.9,0-11,3.7-11,8.4c0,5.8,3.4,7.7,14.2,11.2c10.7,3.4,15.9,6.9,15.9,15.3c0,8.5-7.6,14-17.8,14
		C640.6,324.3,633.8,319,631.4,310.7z"/>
	<path class="st1" d="M692.3,310.7l4.4-1.6c2.3,7.1,7.5,10.8,14.7,10.8c7.7,0,12.7-3.5,12.7-9.3c0-5.3-2.6-8-13.4-11.5
		c-11-3.5-16.6-6.4-16.6-14.9c0-7.4,6.6-13.2,15.9-13.2c9.6,0,15.2,4.9,17.6,11.8l-4.2,1.9c-2.6-6.7-7.1-9.3-13.5-9.3
		c-6.9,0-11,3.7-11,8.4c0,5.8,3.4,7.7,14.2,11.2c10.7,3.4,15.9,6.9,15.9,15.3c0,8.5-7.6,14-17.8,14
		C701.5,324.3,694.7,319,692.3,310.7z"/>
</g>
</svg>
